<svg width="80" height="80" viewBox="0 0 80 80" fill="none" xmlns="http://www.w3.org/2000/svg">
<path d="M38 1.1547C39.2376 0.440171 40.7624 0.440169 42 1.1547L72.641 18.8453C73.8786 19.5598 74.641 20.8803 74.641 22.3094V57.6906C74.641 59.1197 73.8786 60.4402 72.641 61.1547L42 78.8453C40.7624 79.5598 39.2376 79.5598 38 78.8453L7.35898 61.1547C6.12138 60.4402 5.35898 59.1197 5.35898 57.6906V22.3094C5.35898 20.8803 6.12138 19.5598 7.35898 18.8453L38 1.1547Z" fill="#AE0F0A"/>
<path d="M33.5 42.1667C32.07 42.8817 30.8783 43.9434 29.99 45.2651C29.4916 46.0234 29.4916 46.9767 29.99 47.7351C30.8783 49.0567 32.07 50.1184 33.5 50.8334" stroke="white" stroke-width="2.4" stroke-linecap="round" stroke-linejoin="round"/>
<path d="M46.9541 42.1667C48.3841 42.8817 49.5758 43.9434 50.4641 45.2651C50.9624 46.0234 50.9624 46.9767 50.4641 47.7351C49.5758 49.0567 48.3841 50.1184 46.9541 50.8334" stroke="white" stroke-width="2.4" stroke-linecap="round" stroke-linejoin="round"/>
<path d="M33.4997 61.6671H46.4997C57.333 61.6671 61.6663 57.3337 61.6663 46.5004V33.5004C61.6663 22.6671 57.333 18.3337 46.4997 18.3337H33.4997C22.6663 18.3337 18.333 22.6671 18.333 33.5004V46.5004C18.333 57.3337 22.6663 61.6671 33.4997 61.6671Z" stroke="white" stroke-width="2.4" stroke-linecap="round" stroke-linejoin="round"/>
<path d="M18.8311 31.3554L60.4744 31.3337" stroke="white" stroke-width="2.4" stroke-linecap="round" stroke-linejoin="round"/>
</svg>
