<svg width="120" height="120" viewBox="0 0 120 120" fill="none" xmlns="http://www.w3.org/2000/svg">
<path d="M20.1 29.85C13.75 38.25 10 48.7 10 60C10 87.6 32.4 110 60 110C87.6 110 110 87.6 110 60C110 32.4 87.6 10 60 10" stroke="#AE0F0A" stroke-width="3" stroke-linecap="round" stroke-linejoin="round"/>
<path d="M25 60C25 79.35 40.65 95 60 95C79.35 95 95 79.35 95 60C95 40.65 79.35 25 60 25" stroke="#AE0F0A" stroke-width="3" stroke-linecap="round" stroke-linejoin="round"/>
<path d="M60 80C71.05 80 80 71.05 80 60C80 48.95 71.05 40 60 40" stroke="#AE0F0A" stroke-width="3" stroke-linecap="round" stroke-linejoin="round"/>
</svg>
