<svg width="120" height="120" viewBox="0 0 120 120" fill="none" xmlns="http://www.w3.org/2000/svg">
<path d="M95 45C95 52.25 92.85 58.9001 89.15 64.4501C83.75 72.4501 75.2 78.1 65.25 79.55C63.55 79.85 61.8 80 60 80C58.2 80 56.45 79.85 54.75 79.55C44.8 78.1 36.25 72.4501 30.85 64.4501C27.15 58.9001 25 52.25 25 45C25 25.65 40.65 10 60 10C79.35 10 95 25.65 95 45Z" stroke="#AE0F0A" stroke-width="4" stroke-linecap="round" stroke-linejoin="round"/>
<path d="M106.25 92.35L98.0004 94.3C96.1504 94.75 94.7004 96.1501 94.3004 98.0001L92.5504 105.35C91.6004 109.35 86.5004 110.55 83.8504 107.4L60.0004 80L36.1504 107.45C33.5004 110.6 28.4004 109.4 27.4504 105.4L25.7004 98.05C25.2504 96.2 23.8004 94.75 22.0004 94.35L13.7504 92.4001C9.95039 91.5001 8.60039 86.75 11.3504 84L30.8504 64.5C36.2504 72.5 44.8004 78.1501 54.7504 79.6001C56.4504 79.9001 58.2004 80.0501 60.0004 80.0501C61.8004 80.0501 63.5504 79.9001 65.2504 79.6001C75.2004 78.1501 83.7504 72.5 89.1504 64.5L108.65 84C111.4 86.7 110.05 91.45 106.25 92.35Z" stroke="#AE0F0A" stroke-width="4" stroke-linecap="round" stroke-linejoin="round"/>
<path d="M62.8999 29.9L65.8499 35.8C66.2499 36.6 67.2999 37.4 68.2499 37.55L73.5999 38.45C76.9999 39 77.7999 41.5 75.3499 43.95L71.1999 48.0999C70.4999 48.7999 70.0999 50.15 70.3499 51.15L71.5499 56.3C72.4999 60.35 70.3499 61.9499 66.7499 59.7999L61.7499 56.8499C60.8499 56.2999 59.3499 56.2999 58.4499 56.8499L53.4499 59.7999C49.8499 61.8999 47.6999 60.35 48.6499 56.3L49.8499 51.15C50.0499 50.2 49.6999 48.7999 48.9999 48.0999L44.8499 43.95C42.3999 41.5 43.1999 39.05 46.5999 38.45L51.9499 37.55C52.8499 37.4 53.8999 36.6 54.2999 35.8L57.2499 29.9C58.6999 26.7 61.2999 26.7 62.8999 29.9Z" stroke="#AE0F0A" stroke-width="4" stroke-linecap="round" stroke-linejoin="round"/>
</svg>
