<svg width="120" height="120" viewBox="0 0 120 120" fill="none" xmlns="http://www.w3.org/2000/svg">
<path d="M40 10V25" stroke="#AE0F0A" stroke-width="3" stroke-miterlimit="10" stroke-linecap="round" stroke-linejoin="round"/>
<path d="M80 10V25" stroke="#AE0F0A" stroke-width="3" stroke-miterlimit="10" stroke-linecap="round" stroke-linejoin="round"/>
<path d="M17.5 45.4502H102.5" stroke="#AE0F0A" stroke-width="3" stroke-miterlimit="10" stroke-linecap="round" stroke-linejoin="round"/>
<path d="M110 95C110 98.75 108.95 102.3 107.1 105.3C103.65 111.1 97.3 115 90 115C84.95 115 80.35 113.15 76.85 110C75.3 108.7 73.95 107.1 72.9 105.3C71.05 102.3 70 98.75 70 95C70 83.95 78.95 75 90 75C96 75 101.35 77.6499 105 81.7999C108.1 85.3499 110 89.95 110 95Z" stroke="#AE0F0A" stroke-width="3" stroke-miterlimit="10" stroke-linecap="round" stroke-linejoin="round"/>
<path d="M82.2002 95.0002L87.1502 99.9501L97.8002 90.1001" stroke="#AE0F0A" stroke-width="3" stroke-linecap="round" stroke-linejoin="round"/>
<path d="M105 42.5V81.7999C101.35 77.6499 96 75 90 75C78.95 75 70 83.95 70 95C70 98.75 71.05 102.3 72.9 105.3C73.95 107.1 75.3 108.7 76.85 110H40C22.5 110 15 100 15 85V42.5C15 27.5 22.5 17.5 40 17.5H80C97.5 17.5 105 27.5 105 42.5Z" stroke="#AE0F0A" stroke-width="3" stroke-miterlimit="10" stroke-linecap="round" stroke-linejoin="round"/>
<path d="M59.9774 68.5H60.0223" stroke="#AE0F0A" stroke-width="3" stroke-linecap="round" stroke-linejoin="round"/>
<path d="M41.4716 68.5H41.5165" stroke="#AE0F0A" stroke-width="3" stroke-linecap="round" stroke-linejoin="round"/>
<path d="M41.4716 83.5H41.5165" stroke="#AE0F0A" stroke-width="3" stroke-linecap="round" stroke-linejoin="round"/>
</svg>
