<svg width="32" height="32" viewBox="0 0 32 32" fill="none" xmlns="http://www.w3.org/2000/svg">
<path d="M22.7081 16.7071L12.7081 26.7071C12.6151 26.8 12.5048 26.8737 12.3835 26.924C12.2621 26.9743 12.132 27.0001 12.0006 27.0001C11.8692 27.0001 11.7391 26.9743 11.6177 26.924C11.4963 26.8737 11.386 26.8 11.2931 26.7071C11.2001 26.6142 11.1264 26.5039 11.0762 26.3825C11.0259 26.2611 11 26.131 11 25.9996C11 25.8682 11.0259 25.7381 11.0762 25.6167C11.1264 25.4953 11.2001 25.385 11.2931 25.2921L20.5868 15.9996L11.2931 6.70708C11.1054 6.51944 11 6.26494 11 5.99958C11 5.73422 11.1054 5.47972 11.2931 5.29208C11.4807 5.10444 11.7352 4.99902 12.0006 4.99902C12.2659 4.99902 12.5204 5.10444 12.7081 5.29208L22.7081 15.2921C22.801 15.385 22.8748 15.4952 22.9251 15.6166C22.9754 15.738 23.0013 15.8682 23.0013 15.9996C23.0013 16.131 22.9754 16.2611 22.9251 16.3825C22.8748 16.5039 22.801 16.6142 22.7081 16.7071Z" fill="white"/>
</svg>
