<svg width="29" height="28" viewBox="0 0 29 28" fill="none" xmlns="http://www.w3.org/2000/svg">
<path d="M20.3696 14.6186L11.6195 23.3686C11.5383 23.4499 11.4417 23.5144 11.3355 23.5584C11.2293 23.6024 11.1155 23.625 11.0005 23.625C10.8855 23.625 10.7717 23.6024 10.6655 23.5584C10.5592 23.5144 10.4627 23.4499 10.3814 23.3686C10.3001 23.2873 10.2356 23.1908 10.1916 23.0845C10.1476 22.9783 10.125 22.8645 10.125 22.7495C10.125 22.6345 10.1476 22.5207 10.1916 22.4145C10.2356 22.3083 10.3001 22.2117 10.3814 22.1304L18.5135 13.9995L10.3814 5.86857C10.2172 5.70439 10.125 5.4817 10.125 5.24951C10.125 5.01732 10.2172 4.79463 10.3814 4.63045C10.5456 4.46626 10.7683 4.37402 11.0005 4.37402C11.2327 4.37402 11.4554 4.46626 11.6195 4.63045L20.3696 13.3804C20.4509 13.4617 20.5154 13.5582 20.5595 13.6644C20.6035 13.7707 20.6262 13.8845 20.6262 13.9995C20.6262 14.1145 20.6035 14.2284 20.5595 14.3346C20.5154 14.4408 20.4509 14.5373 20.3696 14.6186Z" fill="white"/>
</svg>
