<svg width="32" height="32" viewBox="0 0 32 32" fill="none" xmlns="http://www.w3.org/2000/svg">
<path d="M26.8536 12.7079L16.7164 22.7067C16.6222 22.7997 16.5104 22.8735 16.3874 22.9238C16.2643 22.9741 16.1324 23 15.9992 23C15.866 23 15.734 22.9741 15.611 22.9238C15.4879 22.8735 15.3761 22.7997 15.282 22.7067L5.14473 12.7079C4.95452 12.5202 4.84766 12.2658 4.84766 12.0004C4.84766 11.7351 4.95452 11.4806 5.14473 11.293C5.33495 11.1054 5.59294 11 5.86194 11C6.13095 11 6.38894 11.1054 6.57915 11.293L15.9992 20.5857L25.4192 11.293C25.5134 11.2001 25.6252 11.1264 25.7482 11.0762C25.8713 11.0259 26.0032 11 26.1364 11C26.2696 11 26.4015 11.0259 26.5245 11.0762C26.6476 11.1264 26.7594 11.2001 26.8536 11.293C26.9478 11.3859 27.0225 11.4962 27.0735 11.6176C27.1245 11.739 27.1507 11.8691 27.1507 12.0004C27.1507 12.1318 27.1245 12.2619 27.0735 12.3833C27.0225 12.5047 26.9478 12.615 26.8536 12.7079Z" fill="#010202"/>
</svg>
