<svg width="15" height="10" viewBox="0 0 15 10" fill="none" xmlns="http://www.w3.org/2000/svg">
<path d="M1.19218 4.55829L1.19194 4.55806C1.07473 4.44085 0.91576 4.375 0.75 4.375C0.58424 4.375 0.425268 4.44085 0.308058 4.55806C0.190848 4.67527 0.125 4.83424 0.125 5C0.125 5.01001 0.125241 5.02002 0.125722 5.03002C0.133185 5.18522 0.19819 5.33207 0.308058 5.44194L0.308293 5.44218L4.68306 9.81694C4.92714 10.061 5.32286 10.061 5.56694 9.81694L14.3169 1.06694C14.4342 0.949731 14.5 0.79076 14.5 0.625C14.5 0.45924 14.4342 0.300269 14.3169 0.183058C14.1997 0.0658481 14.0408 0 13.875 0C13.7092 0 13.5503 0.0658481 13.4331 0.183058L5.125 8.49112L1.19218 4.55829Z" fill="white"/>
</svg>
