<svg width="16" height="16" viewBox="0 0 16 16" fill="none" xmlns="http://www.w3.org/2000/svg">
<path d="M3.35374 7.64663L3.35355 7.64645C3.25979 7.55268 3.13261 7.5 3 7.5C2.86739 7.5 2.74021 7.55268 2.64645 7.64645C2.55268 7.74022 2.5 7.86739 2.5 8C2.5 8.00801 2.50019 8.01602 2.50058 8.02402C2.50655 8.14818 2.55855 8.26566 2.64645 8.35355L2.64663 8.35374L6.14645 11.8536C6.34171 12.0488 6.65829 12.0488 6.85355 11.8536L13.8536 4.85355C13.9473 4.75979 14 4.63261 14 4.5C14 4.36739 13.9473 4.24022 13.8536 4.14645C13.7598 4.05268 13.6326 4 13.5 4C13.3674 4 13.2402 4.05268 13.1464 4.14645L6.5 10.7929L3.35374 7.64663Z" fill="white"/>
</svg>
