<svg width="32" height="32" viewBox="0 0 32 32" fill="none" xmlns="http://www.w3.org/2000/svg">
<path d="M15 4V8C15 8.55228 15.4477 9 16 9C16.5523 9 17 8.55228 17 8V4C17 3.44772 16.5523 3 16 3C15.4477 3 15 3.44772 15 4Z" fill="white"/>
<path d="M28 15H24C23.4477 15 23 15.4477 23 16C23 16.5523 23.4477 17 24 17H28C28.5523 17 29 16.5523 29 16C29 15.4477 28.5523 15 28 15Z" fill="white"/>
<path d="M22.3696 20.9555C22.182 20.768 21.9277 20.6626 21.6625 20.6626C21.3973 20.6626 21.1429 20.768 20.9554 20.9555C20.7678 21.143 20.6625 21.3974 20.6625 21.6626C20.6625 21.9278 20.7678 22.1822 20.9554 22.3697L23.7804 25.1947C23.9679 25.3822 24.2223 25.4876 24.4875 25.4876C24.7527 25.4876 25.007 25.3822 25.1946 25.1947C25.3821 25.0072 25.4875 24.7528 25.4875 24.4876C25.4875 24.2224 25.3821 23.968 25.1946 23.7805L22.3696 20.9555Z" fill="white"/>
<path d="M17 28V24C17 23.4477 16.5523 23 16 23C15.4477 23 15 23.4477 15 24V28C15 28.5523 15.4477 29 16 29C16.5523 29 17 28.5523 17 28Z" fill="white"/>
<path d="M11.0446 22.3697C11.2321 22.1822 11.3375 21.9278 11.3375 21.6626C11.3375 21.3974 11.2321 21.143 11.0446 20.9555C10.857 20.768 10.6027 20.6626 10.3375 20.6626C10.0722 20.6626 9.81788 20.768 9.63034 20.9555L6.80558 23.7803C6.61781 23.968 6.51245 24.2224 6.51245 24.4876C6.51245 24.5036 6.51284 24.5196 6.51361 24.5356C6.52555 24.7839 6.62956 25.0189 6.80534 25.1947C6.99288 25.3822 7.24723 25.4876 7.51245 25.4876C7.77767 25.4876 8.03202 25.3822 8.21956 25.1947L11.0446 22.3697Z" fill="white"/>
<path d="M4 17H8C8.55228 17 9 16.5523 9 16C9 15.4477 8.55228 15 8 15H4C3.44772 15 3 15.4477 3 16C3 16.5523 3.44772 17 4 17Z" fill="white"/>
<path d="M6.80546 8.21968L9.63034 11.0446C9.81788 11.2321 10.0722 11.3375 10.3375 11.3375C10.6027 11.3375 10.857 11.2321 11.0446 11.0446C11.2321 10.857 11.3375 10.6027 11.3375 10.3375C11.3375 10.0722 11.2321 9.81788 11.0446 9.63034L8.21968 6.80546C8.03202 6.61781 7.77767 6.51245 7.51245 6.51245C7.24723 6.51245 6.99288 6.61781 6.80534 6.80534C6.61781 6.99288 6.51245 7.24723 6.51245 7.51245C6.51245 7.77767 6.61781 8.03202 6.80546 8.21968Z" fill="white"/>
</svg>
