<svg width="400" height="400" viewBox="0 0 400 400" fill="none" xmlns="http://www.w3.org/2000/svg">
<path d="M366.666 200C366.666 108 292 33.3333 200 33.3333C108 33.3333 33.333 108 33.333 200C33.333 292 108 366.667 200 366.667" stroke="#FF8D19" stroke-width="6" stroke-linecap="round" stroke-linejoin="round"/>
<path d="M152.5 42C120 139.333 117.5 252.667 150 350H133.333" stroke="#FF8D19" stroke-width="6" stroke-linecap="round" stroke-linejoin="round"/>
<path d="M247.5 41C263.667 89.6667 274.333 149.333 274.333 200" stroke="#FF8D19" stroke-width="6" stroke-linecap="round" stroke-linejoin="round"/>
<path d="M39 246C87.6667 262.167 149.333 274.334 200 274.334" stroke="#FF8D19" stroke-width="6" stroke-linecap="round" stroke-linejoin="round"/>
<path d="M41 155.5C138.333 123 252.667 117.5 350 150" stroke="#FF8D19" stroke-width="6" stroke-linecap="round" stroke-linejoin="round"/>
<path d="M308.333 334.667C337.788 334.667 361.667 310.789 361.667 281.334C361.667 251.878 337.788 228 308.333 228C278.878 228 255 251.878 255 281.334C255 310.789 278.878 334.667 308.333 334.667Z" stroke="#FF8D19" stroke-width="6" stroke-linecap="round" stroke-linejoin="round"/>
<path d="M371.667 344.667L355 328" stroke="#FF8D19" stroke-width="6" stroke-linecap="round" stroke-linejoin="round"/>
</svg>
