<svg width="80" height="80" viewBox="0 0 80 80" fill="none" xmlns="http://www.w3.org/2000/svg">
<path d="M38 1.1547C39.2376 0.440171 40.7624 0.440169 42 1.1547L72.641 18.8453C73.8786 19.5598 74.641 20.8803 74.641 22.3094V57.6906C74.641 59.1197 73.8786 60.4402 72.641 61.1547L42 78.8453C40.7624 79.5598 39.2376 79.5598 38 78.8453L7.35898 61.1547C6.12138 60.4402 5.35898 59.1197 5.35898 57.6906V22.3094C5.35898 20.8803 6.12138 19.5598 7.35898 18.8453L38 1.1547Z" fill="#AE0F0A"/>
<path d="M18.333 38.9165C18.333 37.1216 19.7881 35.6665 21.583 35.6665H22.6663V42.1665H21.583C19.7881 42.1665 18.333 40.7114 18.333 38.9165V38.9165Z" stroke="white" stroke-width="2.4"/>
<path d="M22.667 34.91C22.667 32.9347 24.2682 31.3335 26.2435 31.3335H35.667V46.5002H26.2435C24.2682 46.5002 22.667 44.8989 22.667 42.9237V34.91Z" stroke="white" stroke-width="2.4"/>
<path d="M26.999 46.5H33.499V56.25C33.499 58.0449 32.0439 59.5 30.249 59.5V59.5C28.4541 59.5 26.999 58.0449 26.999 56.25V46.5Z" stroke="white" stroke-width="2.4"/>
<path d="M35.667 32.2646C35.667 30.6495 36.7495 29.2348 38.3085 28.8125L52.7748 24.8946C52.8884 24.8638 53.0003 24.9494 53.0003 25.0672V52.7665C53.0003 52.8842 52.8884 52.9699 52.7748 52.9391L38.3085 49.0211C36.7495 48.5989 35.667 47.1842 35.667 45.569V32.2646Z" stroke="white" stroke-width="2.4"/>
<rect x="52.999" y="20.5" width="8.66667" height="36.8333" rx="4.33333" stroke="white" stroke-width="2.4"/>
</svg>
