<svg width="80" height="80" viewBox="0 0 80 80" fill="none" xmlns="http://www.w3.org/2000/svg">
<path d="M38 1.1547C39.2376 0.440171 40.7624 0.440169 42 1.1547L72.641 18.8453C73.8786 19.5598 74.641 20.8803 74.641 22.3094V57.6906C74.641 59.1197 73.8786 60.4402 72.641 61.1547L42 78.8453C40.7624 79.5598 39.2376 79.5598 38 78.8453L7.35898 61.1547C6.12138 60.4402 5.35898 59.1197 5.35898 57.6906V22.3094C5.35898 20.8803 6.12138 19.5598 7.35898 18.8453L38 1.1547Z" fill="#AE0F0A"/>
<path d="M37.2915 62.7499H42.7516C44.8316 62.7499 46.1749 61.2765 45.7849 59.4782L44.8965 55.5566H35.1465L34.2582 59.4782C33.8682 61.1682 35.3415 62.7499 37.2915 62.7499Z" stroke="white" stroke-width="2.4" stroke-linecap="round" stroke-linejoin="round"/>
<path d="M44.8965 55.5352L48.6449 52.1984C50.7466 50.3351 50.8332 49.035 49.1649 46.9333L42.5565 38.5484C41.1699 36.7934 38.8949 36.7934 37.5082 38.5484L30.8999 46.9333C29.2316 49.035 29.2315 50.4001 31.4199 52.1984L35.1682 55.5352" stroke="white" stroke-width="2.4" stroke-linecap="round" stroke-linejoin="round"/>
<path d="M40.0225 38.0935V43.5752" stroke="white" stroke-width="2.4" stroke-linecap="round" stroke-linejoin="round"/>
<path d="M41.1253 24.8337H38.9587C37.767 24.8337 36.792 23.8587 36.792 22.6671V20.5004C36.792 19.3087 37.767 18.3337 38.9587 18.3337H41.1253C42.317 18.3337 43.292 19.3087 43.292 20.5004V22.6671C43.292 23.8587 42.317 24.8337 41.1253 24.8337Z" stroke="white" stroke-width="2.4" stroke-linecap="round" stroke-linejoin="round"/>
<path d="M21.0837 44.702H23.2503C24.442 44.702 25.417 43.727 25.417 42.5354V40.3687C25.417 39.177 24.442 38.2019 23.2503 38.2019H21.0837C19.892 38.2019 18.917 39.177 18.917 40.3687V42.5354C18.917 43.727 19.892 44.702 21.0837 44.702Z" stroke="white" stroke-width="2.4" stroke-linecap="round" stroke-linejoin="round"/>
<path d="M58.9134 44.702H56.7467C55.5551 44.702 54.5801 43.727 54.5801 42.5354V40.3687C54.5801 39.177 55.5551 38.2019 56.7467 38.2019H58.9134C60.1051 38.2019 61.0801 39.177 61.0801 40.3687V42.5354C61.0801 43.727 60.1051 44.702 58.9134 44.702Z" stroke="white" stroke-width="2.4" stroke-linecap="round" stroke-linejoin="round"/>
<path d="M36.7924 21.7139C28.5374 22.6889 22.124 29.6872 22.124 38.2022" stroke="white" stroke-width="2.4" stroke-linecap="round" stroke-linejoin="round"/>
<path d="M57.8737 38.2022C57.8737 29.7088 51.5037 22.7322 43.292 21.7139" stroke="white" stroke-width="2.4" stroke-linecap="round" stroke-linejoin="round"/>
</svg>
