<svg width="85" height="97" viewBox="0 0 85 97" fill="none" xmlns="http://www.w3.org/2000/svg">
<path d="M82.9886 25.7407C83.6316 25.3687 84.1576 25.6737 84.1576 26.4157V71.7597C84.1576 72.5027 83.6316 73.4127 82.9886 73.7837L43.7266 96.4617C43.0826 96.8307 42.5566 96.5287 42.5566 95.7867V84.4357C42.5566 83.6947 43.0826 82.7827 43.7266 82.4107L70.8246 66.7587C71.4676 66.3877 71.9936 65.4777 71.9936 64.7347V33.4407C71.9936 32.6977 72.5196 31.7877 73.1636 31.4147L82.9886 25.7407Z" fill="#F39200"/>
<path d="M82.512 23.567C83.155 23.938 83.155 24.546 82.512 24.918L72.687 30.591C72.043 30.963 70.991 30.963 70.349 30.591L43.26 14.949C42.616 14.577 41.565 14.577 40.922 14.949L13.337 30.868C12.695 31.239 12.168 32.15 12.168 32.892V64.735C12.168 65.477 12.695 66.387 13.337 66.76L40.437 82.403C41.08 82.773 41.606 83.685 41.606 84.427V95.777C41.606 96.52 41.08 96.823 40.437 96.452L1.17 73.786C0.525998 73.414 0 72.503 0 71.76V25.869C0 25.126 0.525998 24.215 1.17 23.844L40.922 0.904977C41.566 0.532977 42.617 0.532977 43.26 0.904977L82.512 23.567Z" fill="#AE0F0A"/>
<path d="M58.6055 39.8251C59.2485 39.4531 59.7735 39.7561 59.7735 40.4991V57.6871C59.7735 58.4291 59.2475 59.3411 58.6045 59.7121L43.7315 68.2961C43.0875 68.6671 42.5625 68.3641 42.5625 67.6211V50.4431C42.5625 49.7001 43.0885 48.7891 43.7305 48.4181L58.6055 39.8251Z" fill="#F39200"/>
<path d="M58.1336 37.6504C58.7766 38.0214 58.7766 38.6294 58.1336 39.0004L42.7797 47.8654C42.1367 48.2374 41.6106 49.1474 41.6106 49.8904V67.6224C41.6106 68.3654 41.0856 68.6684 40.4426 68.2974L25.5596 59.7134C24.9166 59.3424 24.3896 58.4304 24.3896 57.6884V39.9484C24.3896 39.2064 24.9166 38.2944 25.5596 37.9234L40.9186 29.0624C41.5626 28.6914 42.6137 28.6914 43.2577 29.0624L58.1336 37.6504Z" fill="#AE0F0A"/>
</svg>
