<svg width="350" height="103" viewBox="0 0 350 103" fill="none" xmlns="http://www.w3.org/2000/svg">
<g clip-path="url(#clip0_3_590)">
<path d="M82.9886 25.115C83.6316 24.743 84.1576 25.048 84.1576 25.79V71.134C84.1576 71.877 83.6316 72.787 82.9886 73.158L43.7266 95.836C43.0826 96.205 42.5566 95.903 42.5566 95.161V83.81C42.5566 83.069 43.0826 82.157 43.7266 81.785L70.8246 66.133C71.4676 65.762 71.9936 64.852 71.9936 64.109V32.815C71.9936 32.072 72.5196 31.162 73.1636 30.789L82.9886 25.115Z" fill="#F39200"/>
<path d="M82.512 22.941C83.155 23.312 83.155 23.92 82.512 24.292L72.687 29.965C72.043 30.337 70.991 30.337 70.349 29.965L43.26 14.323C42.616 13.951 41.565 13.951 40.922 14.323L13.337 30.242C12.695 30.613 12.168 31.524 12.168 32.266V64.109C12.168 64.851 12.695 65.761 13.337 66.134L40.437 81.777C41.08 82.147 41.606 83.059 41.606 83.801V95.151C41.606 95.894 41.08 96.197 40.437 95.826L1.17 73.16C0.525998 72.788 0 71.877 0 71.134V25.243C0 24.5 0.525998 23.589 1.17 23.218L40.922 0.279C41.566 -0.093 42.617 -0.093 43.26 0.279L82.512 22.941Z" fill="#AE0F0A"/>
<path d="M58.6065 39.1991C59.2495 38.8271 59.7745 39.1301 59.7745 39.8731V57.0611C59.7745 57.8031 59.2485 58.7151 58.6055 59.0861L43.7325 67.6701C43.0885 68.0411 42.5635 67.7381 42.5635 66.9951V49.8171C42.5635 49.0741 43.0895 48.1631 43.7315 47.7921L58.6065 39.1991Z" fill="#F39200"/>
<path d="M58.1336 37.024C58.7766 37.395 58.7766 38.003 58.1336 38.374L42.7797 47.239C42.1367 47.611 41.6106 48.521 41.6106 49.264V66.996C41.6106 67.739 41.0856 68.042 40.4426 67.671L25.5596 59.087C24.9166 58.716 24.3896 57.804 24.3896 57.062V39.322C24.3896 38.58 24.9166 37.668 25.5596 37.297L40.9186 28.436C41.5626 28.065 42.6137 28.065 43.2577 28.436L58.1336 37.024Z" fill="#AE0F0A"/>
<path d="M122.858 35.115C122.858 31.272 122.379 28.5 121.421 26.803C120.454 25.104 118.672 24.243 116.063 24.243C115.127 24.243 114.104 24.321 112.981 24.452C111.87 24.594 111.015 24.711 110.459 24.804V54.373H101.97V18.923C103.625 18.466 105.748 18.004 108.381 17.577C111.027 17.161 113.824 16.967 116.763 16.967C119.284 16.967 121.357 17.283 122.968 17.951C124.576 18.599 125.913 19.445 126.987 20.53C127.497 20.155 128.156 19.761 128.954 19.337C129.743 18.923 130.634 18.533 131.622 18.188C132.597 17.83 133.625 17.531 134.726 17.304C135.841 17.07 136.935 16.967 138.065 16.967C140.909 16.967 143.256 17.367 145.106 18.188C146.947 19.005 148.396 20.133 149.457 21.614C150.497 23.08 151.216 24.856 151.62 26.932C152.019 29.018 152.22 31.296 152.22 33.76V54.373H143.72V35.115C143.72 31.272 143.274 28.5 142.328 26.803C141.398 25.104 139.602 24.243 136.935 24.243C135.579 24.243 134.298 24.464 133.075 24.908C131.877 25.348 130.96 25.791 130.359 26.213C130.718 27.376 130.986 28.599 131.127 29.91C131.265 31.219 131.339 32.631 131.339 34.114V54.373H122.857L122.858 35.115Z" fill="#010202"/>
<path d="M169.518 16.8101C172.329 16.8101 174.687 17.1631 176.598 17.8561C178.514 18.5701 180.031 19.5481 181.189 20.7981C182.333 22.0691 183.161 23.6061 183.653 25.3981C184.118 27.1901 184.378 29.1591 184.378 31.3191V53.5291C183.068 53.8021 181.091 54.1481 178.465 54.5261C175.811 54.9401 172.834 55.1501 169.519 55.1501C167.318 55.1501 165.321 54.9161 163.488 54.5011C161.676 54.0681 160.12 53.4011 158.841 52.4691C157.549 51.5541 156.539 50.3251 155.81 48.8341C155.098 47.3461 154.734 45.5081 154.734 43.3031C154.734 41.1821 155.143 39.4211 155.962 37.9801C156.782 36.5241 157.892 35.3451 159.286 34.4311C160.694 33.5351 162.315 32.8721 164.154 32.4711C165.991 32.0831 167.931 31.8851 169.944 31.8851C170.876 31.8851 171.861 31.9421 172.883 32.0461C173.915 32.1641 175.013 32.3711 176.173 32.6551V31.2471C176.173 30.2641 176.069 29.3361 175.821 28.4441C175.587 27.5691 175.19 26.7791 174.593 26.1081C174.02 25.4181 173.239 24.9021 172.302 24.5291C171.329 24.1511 170.125 23.9601 168.686 23.9601C166.723 23.9601 164.91 24.1131 163.294 24.3861C161.656 24.6641 160.317 24.9941 159.285 25.3571L158.243 18.4951C159.31 18.1371 160.879 17.7631 162.935 17.3851C164.99 16.9941 167.186 16.8101 169.518 16.8101ZM170.232 48.4201C172.834 48.4201 174.82 48.2711 176.173 47.9811V38.6091C175.706 38.4651 175.031 38.3281 174.151 38.1951C173.265 38.0541 172.28 37.9801 171.207 37.9801C170.274 37.9801 169.324 38.0541 168.382 38.1951C167.412 38.3281 166.556 38.5851 165.778 38.9591C165.003 39.3351 164.382 39.8521 163.913 40.5361C163.448 41.2131 163.218 42.0501 163.218 43.0841C163.218 45.1051 163.838 46.4911 165.12 47.2551C166.372 48.0341 168.071 48.4201 170.232 48.4201Z" fill="#010202"/>
<path d="M189.489 18.9221C191.133 18.4551 193.244 18.0021 195.864 17.5761C198.485 17.1601 201.367 16.9651 204.549 16.9651C207.532 16.9651 210.047 17.3651 212.055 18.1841C214.05 19.0041 215.657 20.1301 216.854 21.6131C218.029 23.0781 218.884 24.8531 219.372 26.9311C219.871 29.0171 220.107 31.2921 220.107 33.7581V54.3711H211.623V35.1141C211.623 33.1251 211.502 31.4771 211.253 30.0901C210.99 28.7181 210.571 27.5961 209.988 26.7391C209.397 25.8601 208.607 25.2411 207.602 24.8241C206.582 24.4491 205.385 24.2411 203.91 24.2411C202.849 24.2411 201.721 24.3111 200.565 24.4501C199.391 24.5941 198.518 24.7101 197.97 24.8041V54.3731H189.49V18.9221H189.489Z" fill="#010202"/>
<path d="M256.186 53.249C254.504 53.767 252.398 54.231 249.837 54.66C247.303 55.069 244.627 55.282 241.834 55.282C238.933 55.282 236.332 54.827 234.049 53.947C231.747 53.07 229.8 51.783 228.202 50.135C226.587 48.487 225.354 46.451 224.472 44.109C223.621 41.756 223.194 39.087 223.194 36.148C223.194 33.25 223.546 30.637 224.283 28.278C225.011 25.914 226.062 23.891 227.466 22.226C228.866 20.531 230.58 19.232 232.578 18.324C234.593 17.41 236.911 16.969 239.522 16.969C241.29 16.969 242.86 17.162 244.208 17.577C245.558 18.005 246.729 18.478 247.703 18.985V1.40097L256.187 0.000976562L256.186 53.249ZM231.886 35.941C231.886 39.682 232.769 42.612 234.557 44.728C236.307 46.864 238.766 47.929 241.892 47.929C243.246 47.929 244.4 47.869 245.365 47.746C246.316 47.627 247.099 47.497 247.702 47.358V26.353C246.962 25.822 245.975 25.345 244.73 24.91C243.5 24.461 242.183 24.24 240.764 24.24C237.69 24.24 235.435 25.29 234.016 27.404C232.583 29.499 231.886 32.339 231.886 35.941Z" fill="#010202"/>
<path d="M273.914 16.8101C276.73 16.8101 279.09 17.1631 280.99 17.8561C282.915 18.5701 284.43 19.5481 285.594 20.7981C286.731 22.0691 287.55 23.6061 288.025 25.3981C288.514 27.1901 288.767 29.1591 288.767 31.3191V53.5291C287.463 53.8021 285.489 54.1481 282.844 54.5261C280.206 54.9401 277.229 55.1501 273.913 55.1501C271.712 55.1501 269.722 54.9161 267.888 54.5011C266.07 54.0681 264.506 53.4011 263.245 52.4691C261.929 51.5541 260.941 50.3251 260.217 48.8341C259.5 47.3461 259.124 45.5081 259.124 43.3031C259.124 41.1821 259.537 39.4211 260.361 37.9801C261.17 36.5241 262.28 35.3451 263.678 34.4311C265.085 33.5351 266.706 32.8721 268.56 32.4711C270.405 32.0831 272.331 31.8851 274.345 31.8851C275.274 31.8851 276.249 31.9421 277.267 32.0461C278.301 32.1641 279.412 32.3711 280.578 32.6551V31.2471C280.578 30.2641 280.452 29.3361 280.228 28.4441C279.991 27.5691 279.571 26.7791 278.985 26.1081C278.409 25.4181 277.632 24.9021 276.691 24.5291C275.718 24.1511 274.514 23.9601 273.066 23.9601C271.121 23.9601 269.31 24.1131 267.671 24.3861C266.045 24.6641 264.721 24.9941 263.678 25.3571L262.644 18.4951C263.719 18.1371 265.274 17.7631 267.328 17.3851C269.39 16.9941 271.588 16.8101 273.914 16.8101ZM274.619 48.4201C277.228 48.4201 279.225 48.2711 280.579 47.9811V38.6091C280.108 38.4651 279.421 38.3281 278.539 38.1951C277.655 38.0541 276.691 37.9801 275.595 37.9801C274.674 37.9801 273.703 38.0541 272.753 38.1951C271.814 38.3281 270.936 38.5851 270.17 38.9591C269.397 39.3351 268.772 39.8521 268.314 40.5361C267.843 41.2131 267.603 42.0501 267.603 43.0841C267.603 45.1051 268.239 46.4911 269.509 47.2551C270.76 48.0341 272.472 48.4201 274.619 48.4201Z" fill="#010202"/>
<path d="M314.767 25.3551C314.071 25.1341 313.099 24.8881 311.867 24.6191C310.629 24.3701 309.189 24.2411 307.53 24.2411C306.616 24.2411 305.63 24.3301 304.559 24.5261C303.516 24.7091 302.797 24.8781 302.371 25.0191V54.3761H293.891V19.4781C295.524 18.8701 297.581 18.2991 300.022 17.7601C302.474 17.2231 305.176 16.9641 308.168 16.9641C308.738 16.9641 309.387 16.9861 310.149 17.0601C310.878 17.1401 311.625 17.2231 312.392 17.3361C313.132 17.4461 313.847 17.6011 314.554 17.7601C315.23 17.9251 315.819 18.0681 316.243 18.2081L314.767 25.3551Z" fill="#010202"/>
<path d="M350 35.994C350 38.903 349.604 41.546 348.738 43.937C347.902 46.311 346.706 48.354 345.177 50.021C343.63 51.7 341.78 53.012 339.612 53.95C337.445 54.889 335.037 55.347 332.42 55.347C329.8 55.347 327.429 54.889 325.268 53.95C323.129 53.012 321.289 51.7 319.734 50.021C318.201 48.354 316.983 46.311 316.125 43.937C315.268 41.546 314.842 38.903 314.842 35.994C314.842 33.118 315.268 30.496 316.125 28.138C316.983 25.768 318.201 23.75 319.776 22.065C321.339 20.4 323.184 19.09 325.365 18.185C327.494 17.268 329.855 16.813 332.421 16.813C334.99 16.813 337.364 17.269 339.529 18.185C341.707 19.09 343.563 20.401 345.095 22.065C346.644 23.75 347.855 25.768 348.713 28.138C349.581 30.496 350 33.118 350 35.994ZM341.319 35.994C341.319 32.37 340.538 29.484 338.97 27.361C337.42 25.241 335.236 24.169 332.42 24.169C329.626 24.169 327.428 25.241 325.867 27.361C324.309 29.484 323.519 32.37 323.519 35.994C323.519 39.71 324.309 42.614 325.867 44.759C327.428 46.919 329.626 47.979 332.42 47.979C335.235 47.979 337.42 46.918 338.97 44.759C340.536 42.614 341.319 39.711 341.319 35.994Z" fill="#010202"/>
<path d="M115.216 68.412L118.591 67.832V95.448C117.816 95.667 116.824 95.884 115.615 96.102C114.405 96.319 113.014 96.428 111.442 96.428C109.99 96.428 108.684 96.198 107.523 95.739C106.361 95.281 105.369 94.626 104.547 93.779C103.724 92.932 103.089 91.899 102.642 90.676C102.194 89.455 101.971 88.081 101.971 86.556C101.971 85.105 102.159 83.775 102.534 82.564C102.909 81.355 103.459 80.314 104.185 79.443C104.911 78.573 105.8 77.895 106.853 77.412C107.905 76.929 109.108 76.686 110.464 76.686C111.552 76.686 112.514 76.831 113.349 77.122C114.183 77.412 114.806 77.69 115.218 77.956V68.412H115.216ZM115.216 81.112C114.803 80.776 114.212 80.449 113.438 80.134C112.663 79.819 111.816 79.662 110.896 79.662C109.928 79.662 109.1 79.837 108.411 80.188C107.721 80.539 107.159 81.021 106.723 81.638C106.287 82.256 105.973 82.988 105.78 83.834C105.586 84.682 105.489 85.588 105.489 86.556C105.489 88.758 106.033 90.457 107.122 91.655C108.21 92.852 109.663 93.453 111.476 93.453C112.396 93.453 113.164 93.409 113.781 93.325C114.399 93.241 114.875 93.15 115.215 93.052L115.216 81.112Z" fill="#4A4A49"/>
<path d="M126.067 73.71C125.462 73.71 124.948 73.511 124.525 73.112C124.101 72.713 123.89 72.174 123.89 71.496C123.89 70.819 124.101 70.28 124.525 69.882C124.948 69.483 125.463 69.282 126.067 69.282C126.671 69.282 127.186 69.482 127.609 69.882C128.032 70.28 128.245 70.82 128.245 71.496C128.245 72.174 128.032 72.712 127.609 73.112C127.186 73.51 126.672 73.71 126.067 73.71ZM127.773 95.993H124.398V77.122H127.773V95.993Z" fill="#4A4A49"/>
<path d="M145.41 94.105C145.119 94.299 144.557 94.547 143.722 94.849C142.888 95.152 141.913 95.301 140.801 95.301C139.664 95.301 138.593 95.12 137.589 94.758C136.585 94.394 135.708 93.833 134.958 93.071C134.208 92.308 133.615 91.359 133.18 90.221C132.745 89.084 132.528 87.73 132.528 86.156C132.528 84.776 132.733 83.513 133.145 82.364C133.556 81.216 134.155 80.222 134.941 79.387C135.727 78.554 136.689 77.9 137.826 77.427C138.963 76.956 140.245 76.72 141.674 76.72C143.246 76.72 144.619 76.835 145.793 77.065C146.966 77.294 147.952 77.507 148.751 77.699V94.539C148.751 97.442 148.001 99.547 146.501 100.853C145.001 102.16 142.727 102.812 139.678 102.812C138.492 102.812 137.374 102.716 136.321 102.522C135.269 102.329 134.355 102.1 133.581 101.833L134.199 98.895C134.875 99.162 135.705 99.397 136.685 99.603C137.664 99.808 138.686 99.911 139.751 99.911C141.759 99.911 143.204 99.513 144.088 98.713C144.971 97.915 145.413 96.645 145.413 94.903V94.105H145.41ZM145.373 80.097C145.034 80 144.581 79.909 144.012 79.824C143.443 79.74 142.675 79.698 141.707 79.698C139.893 79.698 138.495 80.292 137.515 81.476C136.536 82.662 136.046 84.234 136.046 86.194C136.046 87.282 136.185 88.214 136.463 88.988C136.741 89.762 137.116 90.403 137.588 90.912C138.06 91.42 138.605 91.796 139.221 92.036C139.838 92.279 140.473 92.4 141.126 92.4C142.021 92.4 142.844 92.272 143.594 92.019C144.343 91.765 144.936 91.469 145.372 91.128L145.373 80.097Z" fill="#4A4A49"/>
<path d="M156.224 73.71C155.619 73.71 155.104 73.511 154.681 73.112C154.258 72.713 154.046 72.174 154.046 71.496C154.046 70.819 154.258 70.28 154.681 69.882C155.104 69.483 155.619 69.282 156.224 69.282C156.828 69.282 157.343 69.482 157.766 69.882C158.189 70.28 158.401 70.82 158.401 71.496C158.401 72.174 158.189 72.712 157.766 73.112C157.343 73.51 156.828 73.71 156.224 73.71ZM157.929 95.993H154.554V77.122H157.929V95.993Z" fill="#4A4A49"/>
<path d="M166.893 77.122H174.042V79.953H166.893V88.663C166.893 89.606 166.966 90.387 167.112 91.004C167.257 91.62 167.475 92.105 167.765 92.456C168.056 92.806 168.418 93.053 168.853 93.199C169.289 93.344 169.797 93.418 170.377 93.418C171.393 93.418 172.21 93.304 172.827 93.073C173.444 92.844 173.873 92.678 174.116 92.583L174.769 95.378C174.43 95.547 173.837 95.759 172.99 96.013C172.143 96.265 171.176 96.394 170.087 96.394C168.804 96.394 167.746 96.23 166.912 95.904C166.078 95.578 165.406 95.089 164.898 94.434C164.39 93.779 164.033 92.977 163.828 92.021C163.622 91.066 163.519 89.958 163.519 88.701V71.861L166.894 71.281V77.122H166.893Z" fill="#4A4A49"/>
<path d="M184.423 76.6489C185.776 76.6489 186.918 76.8239 187.85 77.1749C188.782 77.5259 189.533 78.0219 190.1 78.6619C190.669 79.3049 191.076 80.0659 191.316 80.9499C191.558 81.8329 191.681 82.8059 191.681 83.8709V95.6659C191.391 95.7139 190.986 95.7809 190.465 95.8659C189.944 95.9509 189.359 96.0269 188.705 96.1009C188.049 96.1729 187.343 96.2399 186.581 96.3009C185.82 96.3609 185.063 96.3909 184.313 96.3909C183.247 96.3909 182.268 96.2829 181.373 96.0639C180.477 95.8459 179.704 95.5009 179.051 95.0299C178.398 94.5589 177.89 93.9359 177.527 93.1619C177.164 92.3869 176.982 91.4549 176.982 90.3669C176.982 89.3269 177.195 88.4299 177.618 87.6809C178.041 86.9299 178.615 86.3259 179.342 85.8669C180.068 85.4069 180.914 85.0669 181.882 84.8499C182.851 84.6309 183.866 84.5219 184.931 84.5219C185.271 84.5219 185.62 84.5399 185.983 84.5769C186.348 84.6139 186.691 84.6619 187.018 84.7229C187.344 84.7839 187.628 84.8379 187.872 84.8859C188.112 84.9359 188.283 84.9719 188.38 84.9949V84.0499C188.38 83.4939 188.318 82.9439 188.198 82.4009C188.077 81.8569 187.858 81.3719 187.544 80.9489C187.231 80.5259 186.801 80.1869 186.255 79.9329C185.713 79.6789 185.004 79.5519 184.134 79.5519C183.019 79.5519 182.047 79.6299 181.211 79.7869C180.378 79.9449 179.753 80.1079 179.342 80.2769L178.944 77.4819C179.379 77.2889 180.105 77.1009 181.121 76.9199C182.134 76.7399 183.236 76.6489 184.423 76.6489ZM184.712 93.5619C185.511 93.5619 186.218 93.5439 186.833 93.5069C187.452 93.4699 187.965 93.4029 188.377 93.3079V87.6829C188.135 87.5619 187.743 87.4579 187.197 87.3739C186.653 87.2889 185.993 87.2469 185.219 87.2469C184.71 87.2469 184.172 87.2819 183.604 87.3549C183.036 87.4269 182.514 87.5789 182.043 87.8069C181.571 88.0369 181.178 88.3519 180.863 88.7509C180.548 89.1499 180.39 89.6759 180.39 90.3299C180.39 91.5389 180.779 92.3799 181.551 92.8509C182.329 93.3259 183.382 93.5619 184.712 93.5619Z" fill="#4A4A49"/>
<path d="M202.928 96.356C200.847 96.307 199.371 95.861 198.501 95.012C197.631 94.165 197.194 92.847 197.194 91.058V68.412L200.57 67.832V90.514C200.57 91.071 200.616 91.531 200.715 91.893C200.812 92.256 200.968 92.547 201.188 92.763C201.405 92.983 201.695 93.145 202.058 93.253C202.421 93.362 202.868 93.454 203.401 93.525L202.928 96.356Z" fill="#4A4A49"/>
</g>
<defs>
<clipPath id="clip0_3_590">
<rect width="350" height="102.813" fill="white"/>
</clipPath>
</defs>
</svg>
